<svg width="120" height="98" viewBox="0 0 120 98" fill="none" xmlns="http://www.w3.org/2000/svg">
<path d="M6.04145 98H113.985C115.028 97.9951 116.053 97.7547 116.958 97.3023C117.863 96.8498 118.619 96.2007 119.152 95.4179C119.685 94.6352 119.977 93.7455 119.999 92.8353C120.021 91.9251 119.773 91.0254 119.278 90.2237L65.333 2.77328C64.8159 1.93493 64.0484 1.23442 63.1117 0.746122C62.1751 0.257823 61.1043 0 60.0132 0C58.9221 0 57.8513 0.257823 56.9147 0.746122C55.978 1.23442 55.2105 1.93493 54.6935 2.77328L0.721702 90.2237C0.226336 91.0272 -0.0218067 91.929 0.00150314 92.8411C0.024813 93.7532 0.318769 94.6444 0.854689 95.4278C1.39061 96.2112 2.15018 96.86 3.05925 97.3108C3.96831 97.7616 4.9958 97.9991 6.04145 98ZM66.8813 82.0202H53.1452V70.041H66.8813V82.0202ZM66.8813 62.0511H53.1452V38.0871H66.8813V62.0511Z" fill="white"/>
</svg>
